<svg id="Layer_1" data-name="Layer 1" xmlns="http://www.w3.org/2000/svg" xmlns:xlink="http://www.w3.org/1999/xlink" viewBox="0 0 253.44 231"><defs><style>.cls-1{fill:url(#linear-gradient);}.cls-2{fill:url(#linear-gradient-2);}</style><linearGradient id="linear-gradient" x1="136.7" y1="197.9" x2="332.5" y2="358.82" gradientTransform="translate(-98.82 -156.71)" gradientUnits="userSpaceOnUse"><stop offset="0" stop-color="#fbe389"/><stop offset="1" stop-color="#e88282"/></linearGradient><linearGradient id="linear-gradient-2" x1="19.82" y1="130.5" x2="273.26" y2="130.5" gradientTransform="matrix(1, 0, 0, 1, 0, 0)" xlink:href="#linear-gradient"/></defs><title>favicon</title><path class="cls-1" d="M204,15h60.39a8.57,8.57,0,0,1,6.27,2.64,8.57,8.57,0,0,1,2.64,6.27V237.09a9,9,0,0,1-8.91,8.91H204.62a9,9,0,0,1-8.91-8.91V134.79l-24.09,47.52a13.86,13.86,0,0,1-5.94,6.11,16.49,16.49,0,0,1-7.92,2.14H135.32a14.11,14.11,0,0,1-9.24-3q-3.63-3-4.62-5.28L97.37,134.79v102.3A9,9,0,0,1,88.46,246H28.73a9,9,0,0,1-8.91-8.91V23.91a8.57,8.57,0,0,1,2.64-6.27A8.57,8.57,0,0,1,28.73,15H89.12q9.24,0,14.19,8.91l43.23,79.2,43.24-79.2Q194.71,15,204,15Z" transform="translate(-19.82 -15)"/><path class="cls-2" d="M204,15h60.39a8.57,8.57,0,0,1,6.27,2.64,8.57,8.57,0,0,1,2.64,6.27V237.09a9,9,0,0,1-8.91,8.91H204.62a9,9,0,0,1-8.91-8.91V134.79l-24.09,47.52a13.86,13.86,0,0,1-5.94,6.11,16.49,16.49,0,0,1-7.92,2.14H135.32a14.11,14.11,0,0,1-9.24-3q-3.63-3-4.62-5.28L97.37,134.79v102.3A9,9,0,0,1,88.46,246H28.73a9,9,0,0,1-8.91-8.91V23.91a8.57,8.57,0,0,1,2.64-6.27A8.57,8.57,0,0,1,28.73,15H89.12q9.24,0,14.19,8.91l43.23,79.2,43.24-79.2Q194.71,15,204,15Z" transform="translate(-19.82 -15)"/></svg>